<svg width="3710" height="3710" viewBox="0 0 3710 3710" fill="none" xmlns="http://www.w3.org/2000/svg">
<path d="M1057.38 654.391C960.133 793.601 1074.15 1019.3 929.86 1123.99C789.401 1225.91 616.852 1058.85 484.479 1146.58C288.111 1276.72 323.971 1872.22 611.072 2242.21C697.413 2353.48 769.556 2396.77 801.508 2522.61C870.118 2792.82 628.989 2953.56 674.875 3087.2C778.195 3388.12 2367.18 3640.62 3004.75 2736.27C3302.52 2313.91 3347.08 1704.01 3081.03 1240.79C2600.28 403.753 1275.57 342.029 1057.38 654.391Z" fill="#FBE4D8"/>
<path d="M2383.69 2370.05C2534.45 2371.07 2726.65 2350.86 2910.73 2267.6C2957.71 2246.35 3247.91 2115.08 3213.64 1982.91C3201.57 1936.35 3159.43 1929 3142.2 1867.03C3121.78 1793.6 3167.88 1756.93 3199.83 1665.41C3218.89 1610.81 3274.69 1451.01 3178.95 1362.53C3121.74 1309.66 3013.01 1284.65 2930.25 1303.97C2808.85 1332.31 2767.11 1450.48 2699.95 1651.64C2640.42 1829.96 2655.71 1873.73 2610.6 2001.39C2577.12 2096.13 2514.08 2226.58 2383.69 2370.05Z" fill="url(#paint0_linear_73_268)"/>
<mask id="mask0_73_268" style="mask-type:luminance" maskUnits="userSpaceOnUse" x="2383" y="1297" width="851" height="1074">
<path d="M2383.69 2370.05C2534.45 2371.07 2726.65 2350.86 2910.73 2267.6C2957.71 2246.35 3247.91 2115.08 3213.64 1982.91C3201.57 1936.35 3159.43 1929 3142.2 1867.03C3121.78 1793.6 3167.88 1756.93 3199.83 1665.41C3218.89 1610.81 3274.69 1451.01 3178.95 1362.53C3121.74 1309.66 3013.01 1284.65 2930.25 1303.97C2808.85 1332.31 2767.11 1450.48 2699.95 1651.64C2640.42 1829.96 2655.71 1873.73 2610.6 2001.39C2577.12 2096.13 2514.08 2226.58 2383.69 2370.05Z" fill="white"/>
</mask>
<g mask="url(#mask0_73_268)">
<g opacity="0.5">
<path d="M2004.97 2452.36C1917.66 2452.36 1828.31 2440.28 1737.64 2416.14L1739.47 2409.25C1904.45 2453.18 2064.98 2456.9 2216.61 2420.32C2418.6 2371.59 2593.8 2250.59 2737.36 2060.67C2886.91 1862.84 2964.67 1639.82 3003.56 1487.56C3030.48 1382.21 3025.28 1265.55 2988.12 1140.82L2994.94 1138.79C3032.48 1264.77 3037.7 1382.71 3010.46 1489.32C2971.41 1642.22 2893.31 1866.19 2743.05 2064.97C2598.47 2256.23 2421.91 2378.12 2218.28 2427.24C2148.88 2443.99 2077.63 2452.36 2004.97 2452.36Z" fill="#FBE4D8"/>
<path d="M2901.66 1791.79L2899.64 1789.3C2899.22 1788.78 2856.87 1736.01 2822.66 1655.46C2791.05 1581.03 2760.07 1466.91 2791.98 1345.92L2798.86 1347.73C2742.34 1562.07 2884.62 1757.94 2903.21 1782.29C3222.34 1574.53 3219.18 1337.13 3210.56 1269.17C3210.32 1267.31 3210.2 1266.14 3210.2 1265.71L3213.77 1265.75L3217.33 1265.72C3217.34 1266.11 3217.46 1266.97 3217.62 1268.27C3226.4 1337.47 3229.74 1579.6 2904.34 1790.05L2901.66 1791.79Z" fill="#FBE4D8"/>
<path d="M2864.74 2072.35C2827.19 2072.35 2786.39 2069.53 2742.18 2063.03L2740.3 2062.75L2739.48 2061.03C2738.61 2059.19 2652.42 1874.11 2671.32 1622.51L2690.38 1368.93L2697.48 1369.46L2678.43 1623.04C2660.64 1859.8 2736.52 2037.05 2745.13 2056.26C2852.97 2071.88 3008.3 2074.46 3139.74 1999.37C3218.77 1954.22 3252.07 1901.6 3252.4 1901.07L3258.45 1904.82C3257.09 1907.02 3224.11 1959.26 3143.68 2005.32C3086.23 2038.22 2995.17 2072.35 2864.74 2072.35Z" fill="#FBE4D8"/>
</g>
</g>
<path d="M2221.34 2368.83C2105.64 2297.44 1947.32 2175.47 1846.7 1977.94C1714.74 1718.87 1797.98 1557.43 1690.79 1095.16C1623.02 802.871 1572.78 599.571 1402.28 520.064C1268.67 457.759 1077.21 478.937 979.34 581.817C897.962 667.359 871.757 819.401 875.479 923.364C878.513 1008.09 901.586 1065.37 863.133 1118.15C823.835 1172.1 766.633 1157.73 728.142 1199.6C650.082 1284.5 747.773 1493.22 763.562 1526.95C939.194 1902.19 1357 2094.34 1540.26 2175.96C1691.78 2243.44 1922.06 2327.59 2221.34 2368.83Z" fill="url(#paint1_linear_73_268)"/>
<mask id="mask1_73_268" style="mask-type:luminance" maskUnits="userSpaceOnUse" x="698" y="485" width="1524" height="1884">
<path d="M2221.34 2368.83C2105.64 2297.44 1947.32 2175.47 1846.7 1977.94C1714.74 1718.87 1797.98 1557.43 1690.79 1095.16C1623.02 802.871 1572.78 599.571 1402.28 520.064C1268.67 457.759 1077.21 478.937 979.34 581.817C897.962 667.359 871.757 819.401 875.479 923.364C878.513 1008.09 901.586 1065.37 863.133 1118.15C823.835 1172.1 766.633 1157.73 728.142 1199.6C650.082 1284.5 747.773 1493.22 763.562 1526.95C939.194 1902.19 1357 2094.34 1540.26 2175.96C1691.78 2243.44 1922.06 2327.59 2221.34 2368.83Z" fill="white"/>
</mask>
<g mask="url(#mask1_73_268)">
<g opacity="0.5">
<path d="M2347.29 2418.59C2164.86 2388.71 2003.48 2341.62 1867.65 2278.62C1666.63 2185.38 1527.64 2059.56 1454.54 1904.66C1397.37 1783.5 1380.82 1642.93 1359.86 1464.95C1342.49 1317.42 1343.49 1211.38 1344.37 1117.82C1345.5 996.524 1346.4 900.72 1305.78 770.708C1264.51 638.624 1192.7 513.543 1092.37 398.942L1097.72 394.251C1198.72 509.603 1271.01 635.547 1312.58 768.584C1353.53 899.665 1352.63 995.964 1351.48 1117.88C1350.61 1211.23 1349.62 1317.03 1366.93 1464.12C1388.63 1648.38 1404.3 1781.51 1460.98 1901.62C1533.35 2054.97 1671.18 2179.64 1870.65 2272.16C2005.89 2334.89 2166.64 2381.79 2348.45 2411.56L2347.29 2418.59Z" fill="#FBE4D8"/>
<path d="M1351.85 1360.19L1349.96 1356.64C1218.3 1110.01 1044.41 974.324 921.716 903.932C788.883 827.723 686.029 809.577 685.007 809.403L686.203 802.382C687.239 802.559 791.342 820.922 925.26 897.755C1048.16 968.266 1222.08 1103.83 1354.3 1349.66C1370.75 1337.28 1446.66 1277.06 1513.61 1172.56C1582.95 1064.35 1656.6 885.12 1613.74 645.744L1620.75 644.489C1664.04 886.272 1589.56 1067.34 1519.45 1176.66C1443.49 1295.11 1356.03 1357.26 1355.15 1357.88L1351.85 1360.19Z" fill="#FBE4D8"/>
<path d="M1409.28 1756.41L1406.7 1756.19C1238.29 1741.89 1031.3 1558.52 887.319 1407.2C731.612 1243.56 613.979 1081.17 612.81 1079.55L618.583 1075.38C619.751 1077 737.145 1239.05 892.532 1402.35C1034.92 1551.97 1239.03 1733.12 1404.74 1748.86C1413.56 1728.41 1478.2 1581.26 1570.1 1445.22C1669.08 1298.7 1948.48 1198.17 1951.29 1197.17L1953.68 1203.88C1950.89 1204.87 1673.66 1304.63 1576.01 1449.2C1477.87 1594.48 1410.95 1752.44 1410.28 1754.02L1409.28 1756.41Z" fill="#FBE4D8"/>
<path d="M1718.76 2255.82C1656.14 2255.82 1563.73 2252.42 1455.81 2237.8C1270.47 2212.68 1000.09 2148.39 764.517 1984.73L309.615 1668.68L313.677 1662.83L768.579 1978.88C1002.93 2141.69 1272.07 2205.7 1456.58 2230.72C1631.75 2254.47 1765.86 2248.55 1797.46 2246.63C1742.27 2182.02 1712.18 2108.96 1708.02 2029.37C1704.6 1964.02 1718.57 1894.21 1749.55 1821.88C1802.17 1698.99 1886.94 1610.07 1887.79 1609.18L1892.92 1614.12C1892.08 1614.99 1808.1 1703.12 1756.02 1824.86C1725.52 1896.16 1711.76 1964.88 1715.14 2029.1C1719.35 2109.24 1750.44 2182.67 1807.52 2247.34L1812.21 2252.67L1805.14 2253.25C1804.46 2253.3 1772.63 2255.82 1718.76 2255.82Z" fill="#FBE4D8"/>
</g>
</g>
<path d="M2183.5 2352.99C2013.43 2483.97 1778.1 2626.56 1497.68 2690.67C1426.12 2707.03 984.032 2808.09 909.077 2628.71C882.674 2565.52 924.123 2520.9 890.299 2435.8C850.219 2334.96 766.37 2333.07 651.34 2256.82C582.702 2211.33 381.831 2078.18 414.194 1895.42C433.534 1786.21 535.285 1664.22 645.765 1614.86C807.816 1542.45 956.893 1640.5 1206.26 1810.75C1427.32 1961.68 1447.67 2024.48 1608.75 2130.38C1728.29 2208.98 1912.1 2302.6 2183.5 2352.99Z" fill="url(#paint2_linear_73_268)"/>
<mask id="mask2_73_268" style="mask-type:luminance" maskUnits="userSpaceOnUse" x="410" y="1590" width="1774" height="1144">
<path d="M2183.5 2352.99C2013.43 2483.97 1778.1 2626.56 1497.68 2690.67C1426.12 2707.03 984.032 2808.09 909.077 2628.71C882.674 2565.52 924.123 2520.9 890.299 2435.8C850.219 2334.96 766.37 2333.07 651.34 2256.82C582.702 2211.33 381.831 2078.18 414.194 1895.42C433.534 1786.21 535.285 1664.22 645.765 1614.86C807.816 1542.45 956.893 1640.5 1206.26 1810.75C1427.32 1961.68 1447.67 2024.48 1608.75 2130.38C1728.29 2208.98 1912.1 2302.6 2183.5 2352.99Z" fill="white"/>
</mask>
<g mask="url(#mask2_73_268)">
<g opacity="0.5">
<path d="M1928.35 2375.29C1795.05 2375.29 1656.63 2355.23 1513.73 2315.07C1172.44 2219.15 891.191 2032.55 715.357 1892.91C592.88 1795.65 497.405 1657.65 431.585 1482.75L438.248 1480.24C503.609 1653.91 598.333 1790.88 719.788 1887.34C895.111 2026.57 1175.5 2212.61 1515.66 2308.21C1842.32 2400.02 2145.52 2386.33 2416.83 2267.51C2620.49 2178.32 2799.5 2035.7 2948.9 1843.63L2954.52 1848C2804.39 2041.02 2624.44 2184.36 2419.69 2274.03C2265.6 2341.51 2101.29 2375.29 1928.35 2375.29Z" fill="#FBE4D8"/>
<path d="M984.73 2146.41C516.795 2146.41 336.604 1900.99 290.49 1821.09C289.496 1819.37 288.866 1818.25 288.553 1817.81L294.197 1813.47C294.646 1814.05 295.181 1814.96 296.659 1817.53C345.565 1902.27 547.149 2175.19 1089.82 2135.33C1089.97 2117.76 1089.21 2030.03 1062.01 1922.67C1034.08 1812.43 971.736 1658.31 833.356 1550.15L837.744 1544.54C977.772 1653.99 1040.77 1809.74 1068.97 1921.12C1099.49 2041.7 1096.91 2137.79 1096.89 2138.75L1096.78 2141.95L1093.59 2142.19C1055.71 2145.06 1019.39 2146.41 984.73 2146.41Z" fill="#FBE4D8"/>
<path d="M931.361 2597.38C845.031 2597.38 792.227 2577.6 791.563 2577.35L794.112 2570.7C794.94 2571.01 878.237 2602.11 1007.04 2585.25C1125.7 2569.72 1308.31 2509.16 1505.11 2308.91C1499.42 2284.05 1433.66 2014.68 1207.17 1758.79L967.21 1487.68L972.544 1482.96L1212.51 1754.07C1450.34 2022.78 1511.9 2306.46 1512.5 2309.29L1512.89 2311.16L1511.55 2312.52C1312.63 2515.49 1127.65 2576.74 1007.5 2592.38C979.961 2595.96 954.458 2597.38 931.361 2597.38Z" fill="#FBE4D8"/>
</g>
</g>
<path d="M2142.88 2506.67C2129.96 2489.1 2052.19 2386.7 1929.1 2382.43C1826.06 2378.86 1747.27 2446.01 1729.01 2461.57C1655.51 2524.2 1664.01 2574.16 1604.64 2594.44C1534.14 2618.52 1483.54 2561.26 1437.95 2594.32C1406.5 2617.12 1397.28 2668.5 1410.04 2704.33C1432.42 2767.23 1527.8 2797.2 1600.13 2782.16C1699.79 2761.44 1702.04 2666.45 1815.19 2635.94C1880.95 2618.2 1900.1 2644.91 1970.04 2627.78C2051.26 2607.88 2107.63 2551.72 2142.88 2506.67Z" fill="url(#paint3_linear_73_268)"/>
<mask id="mask3_73_268" style="mask-type:luminance" maskUnits="userSpaceOnUse" x="1404" y="2382" width="739" height="404">
<path d="M2142.88 2506.67C2129.96 2489.1 2052.19 2386.7 1929.1 2382.43C1826.06 2378.86 1747.27 2446.01 1729.01 2461.57C1655.51 2524.2 1664.01 2574.16 1604.64 2594.44C1534.14 2618.52 1483.54 2561.26 1437.95 2594.32C1406.5 2617.12 1397.28 2668.5 1410.04 2704.33C1432.42 2767.23 1527.8 2797.2 1600.13 2782.16C1699.79 2761.44 1702.04 2666.45 1815.19 2635.94C1880.95 2618.2 1900.1 2644.91 1970.04 2627.78C2051.26 2607.88 2107.63 2551.72 2142.88 2506.67Z" fill="white"/>
</mask>
<g mask="url(#mask3_73_268)">
<g opacity="0.5">
<path d="M1576.81 2689.14C1515.67 2689.14 1441.23 2658.64 1354.53 2597.93L1356.57 2595.02C1472.71 2676.33 1566.38 2703.07 1634.97 2674.5C1678.2 2656.5 1699.62 2622.56 1722.29 2586.62C1747.8 2546.18 1774.18 2504.37 1834.05 2484.41C1880.09 2469.06 1933.41 2476.41 2039.64 2491.05C2092.72 2498.36 2145.77 2508.96 2197.31 2522.56L2196.39 2526C2145 2512.44 2092.1 2501.87 2039.16 2494.57C1933.47 2480.01 1880.43 2472.7 1835.18 2487.78C1776.52 2507.34 1750.48 2548.61 1725.3 2588.52C1702.32 2624.95 1680.61 2659.36 1636.34 2677.79C1618.18 2685.36 1598.31 2689.14 1576.81 2689.14Z" fill="#FBE4D8"/>
<path d="M1455.16 2792.2L1454.35 2788.73C1580.52 2759.45 1614.76 2688.48 1617.81 2681.58C1606.49 2642.6 1573.44 2609.65 1547.63 2588.83C1519.43 2566.06 1493.53 2552.46 1493.27 2552.33L1494.92 2549.17C1495.96 2549.72 1599.59 2604.49 1621.41 2681.21L1621.57 2681.79L1621.35 2682.35C1621.05 2683.14 1588.97 2761.14 1455.16 2792.2Z" fill="#FBE4D8"/>
<path d="M1742.3 2751.38C1729.61 2713.24 1741.07 2656.8 1776.36 2583.61C1800 2534.6 1826.97 2494.17 1832.24 2486.42C1775.25 2439.99 1635.9 2550.25 1634.49 2551.37L1632.27 2548.59C1632.63 2548.3 1668.71 2519.61 1711.44 2497.49C1769.3 2467.53 1811.13 2463.25 1835.79 2484.76L1836.99 2485.8L1836.08 2487.11C1834.87 2488.85 1716.08 2661.28 1745.68 2750.26L1742.3 2751.38Z" fill="#FBE4D8"/>
<path d="M1865.77 2698.17C1832.2 2569.37 2004.87 2498.29 2025.49 2490.32C1966.26 2388.18 1818.33 2368.85 1816.83 2368.66L1817.27 2365.13C1818.79 2365.32 1970.22 2385.12 2029.62 2490.38L2030.65 2492.22L2028.67 2492.93C2026.72 2493.62 1834.53 2564.18 1869.21 2697.27L1865.77 2698.17Z" fill="#FBE4D8"/>
</g>
</g>
<path d="M1410.75 1108.18C1430.43 1118.17 1455.15 1109 1465.97 1087.69C1476.79 1066.38 1469.61 1041.01 1449.93 1031.02C1448.91 1030.5 1447.87 1030.07 1446.82 1029.65C1450.48 1017.86 1453.24 1005.98 1455.08 994.094C1456.21 994.091 1457.35 994.072 1458.5 993.969C1480.95 991.968 1498.76 971.338 1498.29 947.89C1497.82 924.441 1479.24 907.056 1456.79 909.057C1455.62 909.162 1454.47 909.347 1453.32 909.551C1450.97 897.931 1447.76 886.58 1443.71 875.594C1444.74 874.989 1445.77 874.365 1446.77 873.662C1465.98 860.206 1472.12 833.646 1460.49 814.34C1448.86 795.035 1423.86 790.293 1404.65 803.749C1403.66 804.439 1402.74 805.184 1401.82 805.94C1394.24 797.554 1385.91 789.781 1376.91 782.688C1377.55 781.651 1378.16 780.599 1378.73 779.495C1389.54 758.188 1403.68 734.914 1383.85 725.232C1337.97 702.836 1318.29 722.008 1307.47 743.315C1306.91 744.419 1306.42 745.539 1305.96 746.663C1294.92 743.581 1283.74 741.45 1272.49 740.274C1272.56 739.09 1272.61 737.902 1272.59 736.701C1272.12 713.254 1279.08 700.565 1256.54 700.127C1207.4 699.172 1190.82 720.501 1191.29 743.948C1191.31 745.173 1191.42 746.372 1191.54 747.562C1180.28 750.772 1169.22 754.876 1158.45 759.84C1157.94 758.794 1157.41 757.755 1156.8 756.745C1145.17 737.44 1120.17 732.698 1100.96 746.156C1081.75 759.613 1075.61 786.172 1087.24 805.477C1087.84 806.467 1088.49 807.391 1089.15 808.304C1080.65 816.811 1072.68 826.048 1065.32 835.957C1064.37 835.36 1063.4 834.777 1062.39 834.259C1042.71 824.268 1017.99 833.441 1007.17 854.749C996.349 876.056 1003.53 901.428 1023.21 911.418C1024.23 911.936 1025.27 912.371 1026.31 912.787C1022.66 924.577 1019.9 936.459 1018.05 948.346C1016.92 948.349 1015.79 948.368 1014.64 948.469C992.193 950.471 974.375 971.101 974.844 994.549C975.314 1018 993.895 1035.38 1016.34 1033.38C1017.52 1033.28 1018.67 1033.09 1019.82 1032.89C1022.16 1044.51 1025.37 1055.86 1029.43 1066.85C1028.4 1067.45 1027.37 1068.07 1026.37 1068.78C1007.16 1082.23 1001.02 1108.79 1012.65 1128.1C1024.28 1147.41 1062.79 1156.37 1082 1142.92C1082.98 1142.23 1070.4 1137.26 1071.31 1136.5C1078.9 1144.89 1087.22 1152.66 1096.22 1159.75C1095.59 1160.79 1094.97 1161.84 1094.41 1162.94C1083.59 1184.25 1090.78 1209.62 1110.45 1219.61C1130.13 1229.61 1154.85 1220.43 1165.67 1199.12C1166.23 1198.02 1166.71 1196.9 1167.18 1195.78C1178.22 1198.86 1189.4 1200.99 1200.65 1202.17C1200.58 1203.35 1200.52 1204.54 1200.55 1205.74C1201.02 1229.19 1219.6 1246.57 1242.05 1244.57C1264.5 1242.57 1282.32 1221.94 1281.85 1198.49C1281.82 1197.27 1281.72 1196.07 1281.6 1194.88C1292.86 1191.67 1303.92 1187.56 1314.69 1182.6C1315.2 1183.65 1315.73 1184.69 1316.34 1185.69C1327.97 1205 1352.97 1209.74 1372.18 1196.28C1391.39 1182.83 1397.53 1156.27 1385.89 1136.96C1385.3 1135.97 1384.65 1135.05 1383.98 1134.14C1392.49 1125.63 1400.45 1116.39 1407.81 1106.48C1408.77 1107.08 1409.73 1107.66 1410.75 1108.18ZM1165.45 1111.29C1094.01 1075.02 1067.93 982.901 1107.21 905.539C1146.48 828.178 1236.24 794.871 1307.69 831.146C1379.13 867.421 1405.21 959.54 1365.93 1036.9C1326.66 1114.26 1236.9 1147.57 1165.45 1111.29Z" fill="#D8DEE8"/>
<path d="M1458.5 993.97C1480.95 991.968 1498.76 971.338 1498.29 947.89C1497.82 924.442 1479.24 907.056 1456.79 909.058C1455.62 909.162 1454.47 909.348 1453.32 909.552C1450.98 897.931 1447.76 886.581 1443.71 875.595C1444.74 874.991 1445.77 874.366 1446.77 873.663C1465.98 860.207 1489.74 827.692 1476.19 809.681C1450.47 775.498 1423.85 790.295 1404.65 803.75C1403.66 804.44 1402.74 805.184 1401.82 805.94C1394.24 797.554 1385.92 789.782 1376.91 782.688C1377.55 781.651 1378.17 780.599 1378.73 779.496C1384.61 767.9 1385.13 755.115 1381.24 744.246C1362.69 776.899 1344.39 809.688 1326.42 842.657C1383.41 884.423 1401.56 966.73 1365.93 1036.9C1335.74 1096.37 1275.73 1129.75 1217.13 1125.57C1214.52 1132.35 1211.95 1139.17 1209.15 1145.88C1201.55 1164.1 1192.92 1181.94 1184.28 1199.76C1189.72 1200.79 1195.18 1201.59 1200.65 1202.17C1200.58 1203.35 1200.52 1204.54 1200.55 1205.74C1201.02 1229.19 1215.25 1249.11 1255.94 1246.95C1278.45 1245.76 1282.32 1221.94 1281.85 1198.49C1281.82 1197.27 1281.72 1196.07 1281.6 1194.88C1292.86 1191.67 1303.92 1187.57 1314.69 1182.6C1315.2 1183.65 1315.73 1184.69 1316.34 1185.7C1327.97 1205 1368.32 1213.21 1387.53 1199.75C1406.74 1186.29 1397.53 1156.27 1385.89 1136.97C1385.3 1135.98 1384.65 1135.05 1383.98 1134.14C1392.49 1125.63 1400.45 1116.39 1407.81 1106.49C1408.77 1107.08 1409.73 1107.67 1410.75 1108.18C1430.43 1118.18 1455.15 1109 1465.97 1087.69C1476.79 1066.39 1469.61 1041.02 1449.93 1031.03C1448.91 1030.51 1447.87 1030.07 1446.82 1029.66C1450.48 1017.87 1453.24 1005.98 1455.08 994.098C1456.21 994.091 1457.35 994.072 1458.5 993.97Z" fill="#D8DEE8"/>
<path d="M1431.92 1110.59C1451.59 1120.58 1476.32 1111.41 1487.13 1090.1C1497.95 1068.79 1490.77 1043.42 1471.09 1033.43C1470.07 1032.91 1469.03 1032.48 1467.99 1032.06C1471.64 1020.27 1474.4 1008.39 1476.25 996.501C1477.38 996.498 1478.51 996.479 1479.66 996.376C1502.11 994.375 1519.93 973.745 1519.46 950.297C1518.99 926.849 1500.41 909.463 1477.96 911.464C1476.78 911.569 1475.63 911.754 1474.49 911.958C1472.14 900.338 1468.93 888.987 1464.87 878.001C1465.91 877.397 1466.93 876.772 1467.94 876.069C1487.14 862.613 1493.29 836.053 1481.65 816.748C1470.02 797.442 1445.02 792.701 1425.81 806.157C1424.83 806.847 1423.9 807.592 1422.99 808.347C1415.4 799.961 1407.08 792.189 1398.08 785.096C1398.71 784.058 1399.33 783.007 1399.89 781.903C1410.71 760.596 1403.53 735.224 1383.85 725.234C1364.17 715.243 1339.45 724.416 1328.63 745.723C1328.07 746.827 1327.59 747.948 1327.13 749.071C1316.09 745.989 1304.9 743.858 1293.65 742.682C1293.72 741.497 1293.78 740.31 1293.76 739.109C1293.29 715.661 1274.7 698.275 1252.25 700.276C1229.8 702.277 1211.98 722.908 1212.45 746.355C1212.48 747.581 1212.58 748.778 1212.7 749.969C1201.44 753.18 1190.38 757.284 1179.62 762.247C1179.1 761.202 1178.57 760.162 1177.97 759.152C1166.33 739.846 1141.33 735.105 1122.12 748.563C1102.92 762.02 1096.78 788.579 1108.41 807.885C1109 808.874 1109.66 809.799 1110.32 810.712C1101.81 819.219 1093.85 828.456 1086.49 838.364C1085.54 837.767 1084.57 837.184 1083.55 836.667C1063.87 826.675 1039.15 835.849 1028.33 857.156C1017.52 878.463 1024.7 903.835 1044.38 913.826C1045.39 914.343 1046.44 914.779 1047.48 915.194C1043.82 926.984 1041.07 938.866 1039.22 950.753C1038.09 950.756 1036.96 950.775 1035.81 950.877C1013.36 952.879 995.54 973.509 996.01 996.957C996.48 1020.4 1015.06 1037.79 1037.51 1035.79C1038.68 1035.68 1039.84 1035.5 1040.98 1035.3C1043.33 1046.92 1046.54 1058.27 1050.59 1069.25C1049.56 1069.86 1048.53 1070.48 1047.53 1071.18C1028.32 1084.64 1022.18 1111.2 1033.81 1130.51C1045.45 1149.81 1070.45 1154.55 1089.65 1141.1C1090.64 1140.41 1091.56 1139.66 1092.48 1138.91C1100.07 1147.29 1108.39 1155.06 1117.39 1162.16C1116.76 1163.2 1116.14 1164.25 1115.58 1165.35C1104.76 1186.66 1111.94 1212.03 1131.62 1222.02C1151.3 1232.01 1176.02 1222.84 1186.84 1201.53C1187.4 1200.43 1187.88 1199.31 1188.34 1198.18C1199.38 1201.26 1210.57 1203.4 1221.81 1204.57C1221.74 1205.76 1221.69 1206.94 1221.71 1208.14C1222.18 1231.59 1240.76 1248.98 1263.21 1246.98C1285.67 1244.98 1303.48 1224.34 1303.01 1200.9C1302.99 1199.67 1302.89 1198.47 1302.77 1197.28C1314.03 1194.07 1325.09 1189.97 1335.85 1185C1336.36 1186.05 1336.89 1187.09 1337.5 1188.1C1349.14 1207.4 1374.14 1212.15 1393.34 1198.69C1412.55 1185.23 1418.69 1158.67 1407.06 1139.37C1406.46 1138.38 1405.81 1137.45 1405.15 1136.54C1413.65 1128.03 1421.62 1118.8 1428.98 1108.89C1429.93 1109.49 1430.9 1110.07 1431.92 1110.59ZM1186.62 1113.7C1115.17 1077.43 1089.09 985.307 1128.37 907.946C1167.65 830.585 1257.41 797.278 1328.85 833.553C1400.3 869.827 1426.38 961.946 1387.1 1039.31C1347.82 1116.67 1258.06 1149.97 1186.62 1113.7Z" fill="#FBE4D8"/>
<path d="M2715.58 833.54C2696.29 771.081 2666.15 740.876 2643.19 724.91C2594 690.702 2527.33 686.793 2529.19 673.686C2530 668.003 2543.18 664.126 2547.13 662.966C2566.43 657.292 2577.23 667.041 2587.97 660.623C2595.98 655.838 2598.15 645.531 2599.74 637.46C2607.79 596.606 2584.21 546.332 2571.67 509.469C2570.8 506.9 2568.83 500.97 2570.77 499.564C2572.85 498.047 2578.4 502.568 2580.27 504.093C2600.22 520.337 2625.12 592.855 2625.09 592.863C2625.08 592.866 2625.12 584.55 2617.62 560.891C2604.55 519.67 2590.35 500.545 2591.59 467.846C2591.83 461.459 2592.1 455.715 2594.31 455.06C2605.5 451.746 2645.71 584.96 2653.15 582.501C2655.01 581.884 2653.97 572.999 2653.45 568.575C2648.61 527.259 2625.87 514.92 2627.8 481.527C2628.11 476.273 2628.55 468.607 2631.43 467.796C2641.07 465.074 2666.68 542.936 2679.39 578.553C2698.38 631.732 2722.51 708.074 2742.65 804.955C2733.63 814.484 2724.6 824.011 2715.58 833.54Z" fill="url(#paint4_linear_73_268)"/>
<path d="M1893.38 732.678C1857.8 721.565 1848.26 680.388 1844.49 664.114C1835.57 625.637 1839.03 559.209 1879.33 540.791C1911.71 525.995 1947.88 551.318 1952.36 554.554C1997.97 587.466 1989.41 650.511 1988.41 657.107C1986.16 671.886 1981.51 702.379 1954.7 721.332C1952.81 722.669 1924.15 742.289 1893.38 732.678Z" fill="url(#paint5_linear_73_268)"/>
<g opacity="0.3">
<path d="M1940.52 637.979C1916.94 614.609 1883.6 624.838 1869.54 603.568C1862.53 592.947 1860.72 575.029 1874.89 543.131C1838.8 564.269 1835.91 627.107 1844.49 664.113C1848.26 680.387 1857.8 721.565 1893.38 732.677C1924.15 742.288 1952.81 722.668 1954.7 721.33C1955.88 720.497 1957 719.635 1958.09 718.761C1962.03 688.173 1959.78 657.067 1940.52 637.979Z" fill="url(#paint6_linear_73_268)"/>
</g>
<path d="M1865.25 1551.5C1865.25 1551.5 1722.07 1106.2 1722.56 938.671C1723.04 771.142 1869.17 706.032 1934.05 690.547C1998.9 675.069 2136.46 692.096 2178.8 880.694C2221.13 1069.23 2190.58 1491.95 2190.58 1491.95L1865.25 1551.5Z" fill="url(#paint7_linear_73_268)"/>
<path opacity="0.3" d="M1984.12 1103.16C2087.27 1090.54 2110.14 993.154 2204.96 981.893C2214.14 980.803 2224.47 980.478 2235.89 981.589C2234.46 963.117 2232.69 945.35 2230.52 928.553C2217.62 926.965 2206.04 927.229 2195.87 928.435C2101.04 939.677 2078.18 1037.07 1975.02 1049.66C1890.88 1059.93 1853.34 1001.61 1782.15 1026.99C1763.81 1033.53 1748.31 1043.82 1735.25 1055.73C1738.22 1072.66 1741.64 1090.27 1745.42 1108.32C1758.25 1096.81 1773.42 1086.89 1791.27 1080.52C1862.46 1055.13 1899.99 1113.45 1984.12 1103.16Z" fill="#FBE4D8"/>
<path opacity="0.8" d="M1992.93 1273.88C1915.77 1282.71 1880.49 1223.94 1815.44 1248.04C1803.2 1252.58 1792.39 1259.13 1782.83 1266.87C1821.79 1416.31 1865.25 1551.5 1865.25 1551.5L2190.58 1491.95C2190.58 1491.95 2202.55 1326.3 2201.12 1156.16C2198.73 1156.29 2196.41 1156.48 2194.17 1156.73C2107.19 1166.34 2087.53 1263.06 1992.93 1273.88Z" fill="url(#paint8_linear_73_268)"/>
<path opacity="0.3" d="M2165.88 990.342C2078.88 999.909 2059.22 1096.62 1964.59 1107.38C1887.42 1116.17 1852.13 1057.37 1787.06 1081.43C1770.75 1087.47 1756.96 1097.09 1745.32 1108.34C1755.85 1159.4 1769.06 1214.03 1782.83 1266.87C1792.39 1259.13 1803.2 1252.58 1815.44 1248.04C1880.49 1223.94 1915.77 1282.71 1992.93 1273.88C2087.53 1263.06 2107.19 1166.34 2194.17 1156.73C2196.41 1156.48 2174.3 989.416 2165.88 990.342Z" fill="url(#paint9_linear_73_268)"/>
<path d="M1428.53 1867.07C1365.76 1785.29 1452.13 1600.15 1546.94 1495.84C1657.24 1374.49 1798.45 1341.08 1888.05 1321.14C2184.6 1255.14 2279.74 1389.3 2429.42 1312.34C2661.62 1192.98 2610.66 778.12 2715.58 766.657C2801.73 757.244 2937.47 1026.01 2899.99 1292.55C2870.91 1499.37 2674.21 1702.81 2475.62 1793.39C2331.55 1859.1 2353.43 1841.66 2025.39 1860.61C1645.14 1882.57 1490.41 1947.69 1428.53 1867.07Z" fill="url(#paint10_linear_73_268)"/>
<path d="M1785.05 1346.88C1845.92 1324.95 1945.43 1319.99 1944.39 1102.5C1944.39 1102.5 2070.45 1094.53 2075.23 1096.11C2079.75 1097.6 2041.84 1313.34 2218.01 1311.88C2229.99 1311.78 2233.14 1328.62 2223.52 1336.23C2191.66 1361.47 2119.81 1400.56 2013.41 1401.8C1946.07 1402.58 1869.24 1417.68 1784.7 1373.17C1773.12 1367.08 1772.28 1351.48 1785.05 1346.88Z" fill="url(#paint11_linear_73_268)"/>
<path d="M2216.41 1758.11C2180.73 1758.56 2193.11 1457.11 2086.39 1014.55C2064.25 922.751 2042.55 847.907 2027.18 797.633C2065.12 792.776 2103.04 787.922 2140.95 783.068C2206.85 909.715 2304.99 1145.38 2286.31 1450.74C2277.52 1594.32 2242.65 1757.78 2216.41 1758.11Z" fill="url(#paint12_linear_73_268)"/>
<path d="M2216.41 1758.11C2180.73 1758.56 2193.11 1457.11 2086.39 1014.55C2064.25 922.751 2042.55 847.907 2027.18 797.633C2065.12 792.776 2103.04 787.922 2140.95 783.068C2206.85 909.715 2304.99 1145.38 2286.31 1450.74C2277.52 1594.32 2242.65 1757.78 2216.41 1758.11Z" fill="url(#paint13_linear_73_268)"/>
<path d="M1820.26 974.685C1825.08 1003.03 1847.39 1213.34 2007.74 1178.59C2154.19 1146.84 2115.64 998.154 2098.43 923.054C2098.43 923.054 2080.12 856.18 2027.48 847.411C2027.48 847.411 2079.78 876.599 2093.44 961.148C2093.44 961.148 2074.41 918.585 1966.71 940.264C1858.93 961.96 1844.64 1014.89 1844.64 1014.89C1844.64 1014.89 1811.81 937.684 1859.33 883.655C1859.33 883.655 1822.56 903.949 1820.26 974.685Z" fill="url(#paint14_linear_73_268)"/>
<g opacity="0.3">
<path d="M2864.68 954.14C2884.77 1070.7 2863.23 1145.99 2831.81 1196.66C2761.07 1310.78 2636 1307.28 2482.01 1487.4C2395.81 1588.24 2390.23 1641.72 2336.64 1719.09C2312.04 1754.6 2279.91 1791.43 2236.97 1826.97C2352.72 1830.19 2375.1 1839.24 2475.62 1793.39C2674.21 1702.81 2870.91 1499.37 2899.99 1292.55C2917.02 1171.44 2898.28 1049.87 2864.68 954.14Z" fill="url(#paint15_linear_73_268)"/>
</g>
<path d="M2901.93 1848.85L881.534 1779.16C838.871 1777.69 803.485 1811.87 803.485 1854.56V3156.71C803.485 3200.6 840.808 3235.23 884.578 3231.94L2904.97 3080.36C2944.34 3077.41 2974.78 3044.61 2974.78 3005.13V1924.26C2974.77 1883.6 2942.56 1850.26 2901.93 1848.85Z" fill="url(#paint16_linear_73_268)"/>
<path d="M2936.66 1848.85L916.262 1779.16C873.599 1777.69 838.213 1811.87 838.213 1854.56V3156.71C838.213 3200.6 875.536 3235.23 919.306 3231.94L2939.7 3080.36C2979.07 3077.41 3009.5 3044.61 3009.5 3005.13V1924.26C3009.5 1883.6 2977.29 1850.26 2936.66 1848.85Z" fill="url(#paint17_linear_73_268)"/>
<path d="M2143.44 2572.96L2990.02 1873.77C2976.78 1859.1 2957.9 1849.59 2936.66 1848.85L916.263 1779.16C897.04 1778.49 879.308 1785.09 865.611 1796.42L1997.37 2579.19C2041.96 2610.03 2101.63 2607.49 2143.44 2572.96Z" fill="url(#paint18_linear_73_268)"/>
<path d="M2143.44 2572.96C2101.63 2607.49 2041.96 2610.03 1997.36 2579.19L865.61 1796.42C848.909 1810.24 838.213 1831.11 838.213 1854.56V3156.71C838.213 3200.6 875.536 3235.23 919.306 3231.94L2939.7 3080.36C2979.07 3077.41 3009.5 3044.6 3009.5 3005.12V1924.26C3009.5 1904.85 3002.11 1887.17 2990.02 1873.77L2143.44 2572.96Z" fill="url(#paint19_linear_73_268)"/>
<path opacity="0.37" d="M2990.02 1873.77L2143.44 2572.96C2101.63 2607.49 2041.96 2610.03 1997.36 2579.19L865.61 1796.42C848.909 1810.24 838.213 1831.11 838.213 1854.56V2046.6C879.103 2029.41 913.703 2026.12 941.828 2028.47C1019.58 2034.96 1038.15 2083.5 1187.03 2153.57C1326.24 2219.09 1340.84 2191.16 1402.21 2238.64C1520.43 2330.11 1468.73 2435.68 1572.35 2533.88C1680.25 2636.14 1773.34 2556.77 1927.64 2653.98C2090.68 2756.71 2038.49 2877.96 2172.84 2949.22C2361.07 3049.07 2553.28 2858.69 2713.28 2959.23C2761.66 2989.63 2792.59 3037.54 2812.53 3089.9L2939.7 3080.36C2979.07 3077.41 3009.5 3044.6 3009.5 3005.12V1924.26C3009.5 1904.85 3002.11 1887.16 2990.02 1873.77Z" fill="url(#paint20_linear_73_268)"/>
<path d="M1473.23 1455.58C1482.53 1460.3 1494.2 1455.96 1499.31 1445.9C1504.42 1435.83 1501.03 1423.85 1491.74 1419.13C1491.25 1418.89 1490.76 1418.68 1490.27 1418.48C1492 1412.91 1493.3 1407.3 1494.17 1401.69C1494.7 1401.69 1495.24 1401.68 1495.78 1401.63C1506.39 1400.68 1514.8 1390.94 1514.58 1379.86C1514.36 1368.78 1505.58 1360.57 1494.98 1361.52C1494.42 1361.57 1493.88 1361.65 1493.34 1361.75C1492.23 1356.26 1490.71 1350.9 1488.8 1345.71C1489.29 1345.42 1489.77 1345.13 1490.24 1344.8C1499.32 1338.44 1502.22 1325.9 1496.72 1316.78C1491.23 1307.66 1479.42 1305.42 1470.35 1311.77C1469.88 1312.1 1469.44 1312.45 1469.01 1312.81C1465.43 1308.85 1461.5 1305.18 1457.24 1301.82C1457.54 1301.33 1457.84 1300.84 1458.1 1300.32C1463.21 1290.25 1469.89 1279.26 1460.52 1274.68C1438.85 1264.11 1429.55 1273.16 1424.44 1283.23C1424.18 1283.75 1423.95 1284.28 1423.73 1284.81C1418.51 1283.35 1413.23 1282.35 1407.92 1281.79C1407.95 1281.23 1407.98 1280.67 1407.96 1280.1C1407.74 1269.03 1411.03 1263.03 1400.38 1262.83C1377.17 1262.37 1369.34 1272.45 1369.56 1283.53C1369.57 1284.1 1369.62 1284.67 1369.68 1285.23C1364.36 1286.75 1359.13 1288.69 1354.05 1291.03C1353.81 1290.54 1353.56 1290.05 1353.27 1289.57C1347.78 1280.45 1335.97 1278.21 1326.89 1284.57C1317.82 1290.93 1314.92 1303.47 1320.41 1312.59C1320.69 1313.06 1321 1313.49 1321.32 1313.93C1317.3 1317.94 1313.54 1322.31 1310.06 1326.99C1309.61 1326.71 1309.15 1326.43 1308.67 1326.19C1299.38 1321.47 1287.7 1325.8 1282.59 1335.86C1277.48 1345.93 1280.87 1357.91 1290.17 1362.63C1290.65 1362.88 1291.14 1363.08 1291.63 1363.28C1289.91 1368.85 1288.6 1374.46 1287.73 1380.08C1287.2 1380.08 1286.66 1380.09 1286.12 1380.13C1275.52 1381.08 1267.1 1390.83 1267.32 1401.9C1267.54 1412.98 1276.32 1421.19 1286.92 1420.24C1287.48 1420.2 1288.02 1420.11 1288.56 1420.01C1289.67 1425.5 1291.19 1430.86 1293.1 1436.05C1292.62 1436.34 1292.13 1436.63 1291.66 1436.97C1282.58 1443.32 1279.68 1455.87 1285.18 1464.99C1290.67 1474.11 1308.86 1478.34 1317.94 1471.99C1318.4 1471.66 1312.46 1469.31 1312.89 1468.96C1316.47 1472.92 1320.4 1476.59 1324.66 1479.94C1324.36 1480.43 1324.06 1480.93 1323.8 1481.45C1318.69 1491.51 1322.08 1503.5 1331.38 1508.22C1340.67 1512.94 1352.35 1508.6 1357.46 1498.54C1357.73 1498.02 1357.95 1497.49 1358.17 1496.96C1363.39 1498.41 1368.67 1499.42 1373.98 1499.97C1373.95 1500.53 1373.93 1501.09 1373.94 1501.66C1374.16 1512.74 1382.94 1520.95 1393.54 1520.01C1404.15 1519.06 1412.56 1509.31 1412.34 1498.24C1412.33 1497.66 1412.28 1497.09 1412.22 1496.53C1417.54 1495.02 1422.77 1493.08 1427.85 1490.73C1428.09 1491.23 1428.34 1491.72 1428.63 1492.19C1434.13 1501.31 1445.94 1503.55 1455.01 1497.2C1464.08 1490.84 1466.98 1478.29 1461.49 1469.17C1461.21 1468.71 1460.9 1468.27 1460.59 1467.84C1464.6 1463.82 1468.37 1459.46 1471.84 1454.78C1472.29 1455.06 1472.75 1455.33 1473.23 1455.58ZM1357.36 1457.05C1323.61 1439.91 1311.29 1396.4 1329.84 1359.86C1348.4 1323.31 1390.8 1307.58 1424.55 1324.72C1458.29 1341.85 1470.61 1385.37 1452.06 1421.91C1433.51 1458.45 1391.11 1474.18 1357.36 1457.05Z" fill="#D8DEE8"/>
<path d="M1495.78 1401.63C1506.39 1400.68 1514.8 1390.94 1514.58 1379.86C1514.36 1368.79 1505.58 1360.57 1494.98 1361.52C1494.42 1361.57 1493.88 1361.66 1493.34 1361.75C1492.23 1356.26 1490.71 1350.9 1488.8 1345.71C1489.29 1345.43 1489.77 1345.13 1490.25 1344.8C1499.32 1338.44 1510.54 1323.08 1504.14 1314.58C1491.99 1298.43 1479.42 1305.42 1470.35 1311.77C1469.88 1312.1 1469.45 1312.45 1469.01 1312.81C1465.43 1308.85 1461.5 1305.18 1457.25 1301.83C1457.55 1301.34 1457.84 1300.84 1458.1 1300.32C1460.88 1294.84 1461.13 1288.8 1459.29 1283.67C1450.53 1299.09 1441.88 1314.58 1433.39 1330.15C1460.32 1349.88 1468.89 1388.76 1452.06 1421.91C1437.8 1450 1409.45 1465.77 1381.77 1463.79C1380.53 1466.99 1379.32 1470.21 1378 1473.38C1374.41 1481.99 1370.34 1490.42 1366.25 1498.84C1368.82 1499.32 1371.4 1499.7 1373.98 1499.97C1373.95 1500.53 1373.93 1501.09 1373.94 1501.66C1374.16 1512.74 1380.88 1522.15 1400.1 1521.13C1410.73 1520.56 1412.56 1509.31 1412.34 1498.24C1412.33 1497.66 1412.28 1497.09 1412.22 1496.53C1417.54 1495.01 1422.77 1493.07 1427.85 1490.73C1428.09 1491.22 1428.34 1491.71 1428.63 1492.19C1434.13 1501.31 1453.19 1505.18 1462.26 1498.83C1471.33 1492.47 1466.98 1478.29 1461.49 1469.17C1461.21 1468.7 1460.9 1468.27 1460.58 1467.84C1464.6 1463.82 1468.37 1459.45 1471.84 1454.77C1472.29 1455.06 1472.75 1455.33 1473.23 1455.58C1482.52 1460.3 1494.2 1455.96 1499.31 1445.9C1504.42 1435.83 1501.03 1423.85 1491.73 1419.13C1491.25 1418.88 1490.76 1418.68 1490.27 1418.48C1492 1412.91 1493.3 1407.3 1494.17 1401.69C1494.7 1401.69 1495.24 1401.68 1495.78 1401.63Z" fill="#D8DEE8"/>
<path d="M1483.23 1456.72C1492.52 1461.44 1504.2 1457.1 1509.31 1447.04C1514.42 1436.97 1511.03 1424.99 1501.73 1420.27C1501.25 1420.02 1500.76 1419.82 1500.27 1419.62C1501.99 1414.05 1503.3 1408.44 1504.17 1402.82C1504.7 1402.82 1505.24 1402.81 1505.78 1402.77C1516.38 1401.82 1524.8 1392.08 1524.58 1381C1524.36 1369.92 1515.58 1361.71 1504.97 1362.66C1504.42 1362.71 1503.88 1362.79 1503.33 1362.89C1502.23 1357.4 1500.71 1352.04 1498.79 1346.85C1499.28 1346.56 1499.77 1346.27 1500.24 1345.94C1509.31 1339.58 1512.21 1327.03 1506.72 1317.91C1501.23 1308.79 1489.42 1306.55 1480.34 1312.91C1479.88 1313.24 1479.44 1313.59 1479.01 1313.95C1475.42 1309.98 1471.49 1306.31 1467.24 1302.96C1467.54 1302.47 1467.83 1301.98 1468.1 1301.45C1473.21 1291.39 1469.82 1279.4 1460.52 1274.69C1451.23 1269.97 1439.55 1274.3 1434.44 1284.36C1434.17 1284.89 1433.94 1285.42 1433.73 1285.95C1428.51 1284.49 1423.23 1283.48 1417.91 1282.93C1417.95 1282.37 1417.97 1281.81 1417.96 1281.24C1417.74 1270.16 1408.96 1261.95 1398.36 1262.9C1387.75 1263.84 1379.34 1273.59 1379.56 1284.66C1379.57 1285.24 1379.62 1285.81 1379.68 1286.37C1374.36 1287.89 1369.13 1289.83 1364.05 1292.17C1363.8 1291.68 1363.55 1291.19 1363.27 1290.71C1357.77 1281.59 1345.96 1279.35 1336.89 1285.71C1327.82 1292.06 1324.92 1304.61 1330.41 1313.73C1330.69 1314.2 1331 1314.63 1331.31 1315.06C1327.3 1319.08 1323.53 1323.45 1320.06 1328.13C1319.61 1327.84 1319.15 1327.57 1318.67 1327.32C1309.37 1322.61 1297.7 1326.94 1292.59 1337C1287.48 1347.07 1290.87 1359.05 1300.16 1363.77C1300.65 1364.02 1301.14 1364.22 1301.63 1364.42C1299.9 1369.99 1298.6 1375.6 1297.73 1381.22C1297.2 1381.22 1296.66 1381.23 1296.12 1381.28C1285.51 1382.22 1277.1 1391.97 1277.32 1403.04C1277.54 1414.12 1286.32 1422.33 1296.92 1421.39C1297.48 1421.34 1298.02 1421.25 1298.56 1421.15C1299.67 1426.64 1301.19 1432 1303.1 1437.19C1302.61 1437.48 1302.13 1437.77 1301.65 1438.11C1292.58 1444.46 1289.68 1457.01 1295.18 1466.13C1300.67 1475.25 1312.48 1477.49 1321.55 1471.13C1322.02 1470.81 1322.45 1470.45 1322.89 1470.1C1326.47 1474.06 1330.4 1477.73 1334.65 1481.08C1334.35 1481.57 1334.06 1482.07 1333.8 1482.59C1328.69 1492.65 1332.08 1504.64 1341.37 1509.36C1350.67 1514.08 1362.35 1509.74 1367.46 1499.68C1367.72 1499.16 1367.95 1498.63 1368.17 1498.1C1373.38 1499.55 1378.67 1500.56 1383.98 1501.11C1383.95 1501.67 1383.92 1502.23 1383.93 1502.8C1384.16 1513.88 1392.93 1522.09 1403.54 1521.15C1414.14 1520.2 1422.56 1510.45 1422.34 1499.38C1422.32 1498.8 1422.28 1498.23 1422.22 1497.67C1427.54 1496.16 1432.76 1494.22 1437.85 1491.87C1438.09 1492.37 1438.34 1492.86 1438.63 1493.33C1444.12 1502.45 1455.93 1504.69 1465 1498.34C1474.08 1491.98 1476.98 1479.43 1471.48 1470.31C1471.2 1469.85 1470.89 1469.41 1470.58 1468.98C1474.6 1464.96 1478.36 1460.6 1481.84 1455.92C1482.29 1456.2 1482.75 1456.47 1483.23 1456.72ZM1367.35 1458.19C1333.61 1441.05 1321.29 1397.54 1339.84 1360.99C1358.39 1324.45 1400.79 1308.72 1434.54 1325.85C1468.29 1342.99 1480.61 1386.5 1462.06 1423.05C1443.5 1459.59 1401.1 1475.32 1367.35 1458.19Z" fill="#FBE4D8"/>
<path opacity="0.3" d="M1044.66 2045.86V3222.54L1184.29 3349.58L1446.19 3139.88L1044.66 2045.86Z" fill="url(#paint21_linear_73_268)"/>
<path d="M1727.09 2069.66L1847.68 3282.53C1849.48 3300.59 1837.04 3316.38 1820 3317.62L1232.42 3366.84C1196.6 3368.1 1177.27 3348.8 1175.32 3329.69L1044.66 2045.86C1042.7 2026.57 1060.59 2009.51 1096.78 2010.24L1692.37 2035.35C1709.67 2036 1725.28 2051.44 1727.09 2069.66Z" fill="url(#paint22_linear_73_268)"/>
<path d="M1753.8 2068.11L1874.91 3287.23C1876.71 3305.39 1864.22 3321.26 1847.11 3322.52L1237.94 3367.17C1218.92 3368.56 1201.72 3353.99 1199.76 3334.78L1068.51 2044.14C1066.54 2024.75 1080.78 2009.49 1100.11 2010.22L1718.94 2033.63C1736.32 2034.28 1751.98 2049.8 1753.8 2068.11Z" fill="#26264F"/>
<path d="M1740.98 2135.38L1853.3 3265.33C1854.99 3282.29 1843.3 3297.09 1827.29 3298.23L1254.32 3338.96C1236.63 3340.22 1220.63 3326.61 1218.81 3308.72L1097.68 2116.62C1095.84 2098.57 1109.07 2084.28 1127.02 2084.85L1708.39 2103.35C1724.63 2103.87 1739.28 2118.28 1740.98 2135.38Z" fill="url(#paint23_linear_73_268)"/>
<path d="M1432.81 2060.65C1433.46 2067.17 1428.86 2072.28 1422.52 2072.07C1416.17 2071.85 1410.49 2066.38 1409.83 2059.85C1409.17 2053.32 1413.79 2048.2 1420.14 2048.43C1426.48 2048.65 1432.15 2054.13 1432.81 2060.65Z" fill="#FBE4D8"/>
<g opacity="0.66">
<path d="M1378.56 2388.87C1310.08 2424.51 1280.76 2503.75 1313.07 2565.86C1345.39 2627.96 1427.11 2649.42 1495.6 2613.78L1378.56 2388.87Z" fill="#FBE4D8"/>
<path d="M1495.6 2613.78L1378.56 2388.87C1410.45 2372.28 1449.76 2384.68 1466.35 2416.57L1523.29 2525.99C1539.89 2557.89 1527.49 2597.19 1495.6 2613.78Z" fill="#FBE4D8"/>
<path d="M1544.59 2715.12C1476.1 2750.76 1446.78 2830 1479.1 2892.1C1511.41 2954.21 1593.13 2975.67 1661.62 2940.03L1544.59 2715.12Z" fill="#FBE4D8"/>
<path d="M1661.62 2940.03L1544.59 2715.12C1576.48 2698.53 1615.78 2710.93 1632.38 2742.82L1689.32 2852.24C1705.91 2884.13 1693.51 2923.44 1661.62 2940.03Z" fill="#FBE4D8"/>
<path d="M1562.53 2871.31L1491.31 2908.37C1400.28 2819.75 1338.78 2701.55 1306.79 2553.77L1378.02 2516.71L1562.53 2871.31Z" fill="#FBE4D8"/>
</g>
<g opacity="0.3">
<path d="M1376.41 2655.73C1315.86 2476.84 1421.24 2386.72 1361.56 2221.03C1329.1 2130.88 1264.1 2063.73 1192.6 2013.72L1100.11 2010.22C1080.78 2009.49 1066.54 2024.75 1068.51 2044.14L1199.76 3334.78C1201.71 3353.99 1218.92 3368.56 1237.94 3367.17L1763.88 3328.62C1762.22 3193.86 1727.99 3097.95 1689.91 3029.77C1585.28 2842.41 1439.1 2840.96 1376.41 2655.73Z" fill="#FBE4D8"/>
</g>
<defs>
<linearGradient id="paint0_linear_73_268" x1="3130.98" y1="1307.89" x2="2770.08" y2="2276.61" gradientUnits="userSpaceOnUse">
<stop offset="0.0036" stop-color="#E38DDD"/>
<stop offset="1" stop-color="#9571F6"/>
</linearGradient>
<linearGradient id="paint1_linear_73_268" x1="698.252" y1="1426.96" x2="2221.34" y2="1426.96" gradientUnits="userSpaceOnUse">
<stop stop-color="#FF9085"/>
<stop offset="1" stop-color="#FB6FBB"/>
</linearGradient>
<linearGradient id="paint2_linear_73_268" x1="1417.21" y1="1800.43" x2="1130.83" y2="2569.14" gradientUnits="userSpaceOnUse">
<stop offset="0.0036" stop-color="#E38DDD"/>
<stop offset="1" stop-color="#9571F6"/>
</linearGradient>
<linearGradient id="paint3_linear_73_268" x1="1404.49" y1="2584.14" x2="2142.88" y2="2584.14" gradientUnits="userSpaceOnUse">
<stop stop-color="#FF9085"/>
<stop offset="1" stop-color="#FB6FBB"/>
</linearGradient>
<linearGradient id="paint4_linear_73_268" x1="2630.42" y1="873.375" x2="2685.46" y2="-471.076" gradientUnits="userSpaceOnUse">
<stop stop-color="#FFC444"/>
<stop offset="0.9964" stop-color="#F36F56"/>
</linearGradient>
<linearGradient id="paint5_linear_73_268" x1="1990" y1="496.196" x2="1933.77" y2="597.546" gradientUnits="userSpaceOnUse">
<stop stop-color="#444B8C"/>
<stop offset="0.9964" stop-color="#3E4177"/>
</linearGradient>
<linearGradient id="paint6_linear_73_268" x1="1985.76" y1="498.319" x2="1930.39" y2="598.112" gradientUnits="userSpaceOnUse">
<stop stop-color="#444B8C"/>
<stop offset="0.9964" stop-color="#3E4177"/>
</linearGradient>
<linearGradient id="paint7_linear_73_268" x1="2067.18" y1="639.483" x2="1958.01" y2="1195.2" gradientUnits="userSpaceOnUse">
<stop stop-color="#444B8C"/>
<stop offset="0.9964" stop-color="#3E4177"/>
</linearGradient>
<linearGradient id="paint8_linear_73_268" x1="2134.98" y1="624.597" x2="2022.58" y2="1196.78" gradientUnits="userSpaceOnUse">
<stop stop-color="#444B8C"/>
<stop offset="0.9964" stop-color="#3E4177"/>
</linearGradient>
<linearGradient id="paint9_linear_73_268" x1="2070.15" y1="621.574" x2="1957" y2="1197.59" gradientUnits="userSpaceOnUse">
<stop stop-color="#444B8C"/>
<stop offset="0.9964" stop-color="#3E4177"/>
</linearGradient>
<linearGradient id="paint10_linear_73_268" x1="2108.71" y1="2635.01" x2="2146.83" y2="1736.35" gradientUnits="userSpaceOnUse">
<stop stop-color="#978982"/>
<stop offset="1" stop-color="#D7C2B8"/>
</linearGradient>
<linearGradient id="paint11_linear_73_268" x1="2022.95" y1="1784.33" x2="1987.13" y2="1010.51" gradientUnits="userSpaceOnUse">
<stop stop-color="#FFC444"/>
<stop offset="0.9964" stop-color="#F36F56"/>
</linearGradient>
<linearGradient id="paint12_linear_73_268" x1="2252.2" y1="670.441" x2="2144.42" y2="1219.14" gradientUnits="userSpaceOnUse">
<stop stop-color="#444B8C"/>
<stop offset="0.9964" stop-color="#3E4177"/>
</linearGradient>
<linearGradient id="paint13_linear_73_268" x1="2252.2" y1="670.441" x2="2144.42" y2="1219.14" gradientUnits="userSpaceOnUse">
<stop stop-color="#444B8C"/>
<stop offset="0.9964" stop-color="#3E4177"/>
</linearGradient>
<linearGradient id="paint14_linear_73_268" x1="1996.12" y1="1218.96" x2="1848.49" y2="50.2494" gradientUnits="userSpaceOnUse">
<stop stop-color="#FFC444"/>
<stop offset="0.9964" stop-color="#F36F56"/>
</linearGradient>
<linearGradient id="paint15_linear_73_268" x1="2524.25" y1="2071.51" x2="2676.56" y2="326.92" gradientUnits="userSpaceOnUse">
<stop offset="0.0036" stop-color="#E38DDD"/>
<stop offset="0.7059" stop-color="#AC79EF"/>
<stop offset="1" stop-color="#9571F6"/>
</linearGradient>
<linearGradient id="paint16_linear_73_268" x1="1249.67" y1="2497.71" x2="353.934" y2="2592.79" gradientUnits="userSpaceOnUse">
<stop stop-color="#FFC444"/>
<stop offset="0.9964" stop-color="#F36F56"/>
</linearGradient>
<linearGradient id="paint17_linear_73_268" x1="1728" y1="2106.72" x2="2473.62" y2="3758.07" gradientUnits="userSpaceOnUse">
<stop stop-color="#FFC444"/>
<stop offset="0.9964" stop-color="#F36F56"/>
</linearGradient>
<linearGradient id="paint18_linear_73_268" x1="1905.37" y1="2325.51" x2="1978.77" y2="721.889" gradientUnits="userSpaceOnUse">
<stop stop-color="#FFC444"/>
<stop offset="0.9964" stop-color="#F36F56"/>
</linearGradient>
<linearGradient id="paint19_linear_73_268" x1="1727.98" y1="2106.73" x2="2473.6" y2="3758.08" gradientUnits="userSpaceOnUse">
<stop stop-color="#FFC444"/>
<stop offset="0.9964" stop-color="#F36F56"/>
</linearGradient>
<linearGradient id="paint20_linear_73_268" x1="1939.22" y1="2011.35" x2="2684.83" y2="3662.71" gradientUnits="userSpaceOnUse">
<stop stop-color="#FFC444"/>
<stop offset="0.9964" stop-color="#F36F56"/>
</linearGradient>
<linearGradient id="paint21_linear_73_268" x1="1044.66" y1="2697.72" x2="1446.19" y2="2697.72" gradientUnits="userSpaceOnUse">
<stop stop-color="#AA80F9"/>
<stop offset="0.9964" stop-color="#6165D7"/>
</linearGradient>
<linearGradient id="paint22_linear_73_268" x1="1031.71" y1="2685.97" x2="1859.48" y2="2702.44" gradientUnits="userSpaceOnUse">
<stop stop-color="#444B8C"/>
<stop offset="0.9964" stop-color="#26264F"/>
</linearGradient>
<linearGradient id="paint23_linear_73_268" x1="1472.78" y1="2705.22" x2="1032.77" y2="5026.29" gradientUnits="userSpaceOnUse">
<stop offset="0.0036" stop-color="#E38DDD"/>
<stop offset="1" stop-color="#9571F6"/>
</linearGradient>
</defs>
</svg>
