<svg width="2029" height="2500" viewBox="0 0 2029 2500" fill="none" xmlns="http://www.w3.org/2000/svg">
<path d="M1014.58 2397.65C983.717 2397.66 953.393 2389.54 926.662 2374.12L646.89 2208.49C605.136 2185.12 625.482 2176.87 639.291 2172.05C683.698 2158.33 726.216 2139.11 765.858 2114.85C769.176 2113.32 772.831 2112.65 776.477 2112.93C780.123 2113.2 783.64 2114.39 786.694 2116.4L1001.67 2244.12C1005.67 2246.23 1010.13 2247.34 1014.66 2247.34C1019.19 2247.34 1023.65 2246.23 1027.65 2244.12L1865.99 1760.23C1869.91 1757.88 1873.16 1754.55 1875.41 1750.57C1877.66 1746.59 1878.83 1742.09 1878.82 1737.52V769.592C1878.82 764.947 1877.63 760.379 1875.35 756.329C1873.08 752.279 1869.8 748.883 1865.83 746.469L1027.49 262.996C1023.54 260.769 1019.08 259.6 1014.54 259.6C1010 259.6 1005.54 260.769 1001.59 262.996L163.743 746.632C159.747 748.996 156.428 752.351 154.109 756.374C151.79 760.396 150.549 764.949 150.507 769.592V1737.11C150.518 1741.67 151.742 1746.15 154.054 1750.09C156.365 1754.02 159.681 1757.27 163.662 1759.5L393.591 1892.19C518.198 1954.46 594.514 1881.08 594.514 1807.38V852.119C594.514 848.9 595.148 845.712 596.38 842.738C597.612 839.764 599.417 837.062 601.694 834.786C603.97 832.509 606.672 830.704 609.646 829.472C612.62 828.24 615.808 827.606 619.027 827.606H725.249C731.75 827.606 737.985 830.188 742.582 834.786C747.179 839.383 749.761 845.617 749.761 852.119V1807.46C749.761 1973.74 659.228 2068.93 501.529 2068.93C433.496 2070.12 366.53 2051.92 308.45 2016.47L88.0807 1890.07C61.3282 1874.49 39.1302 1852.17 23.7027 1825.33C8.2753 1798.49 0.158171 1768.07 0.161714 1737.11V769.592C0.0821958 738.586 8.16498 708.105 23.5978 681.212C39.0307 654.32 61.2699 631.963 88.0807 616.388L926.498 132.343C953.506 117.567 983.796 109.823 1014.58 109.823C1045.37 109.823 1075.66 117.567 1102.66 132.343L1941 616.388C1967.75 631.936 1989.95 654.229 2005.39 681.04C2020.84 707.851 2028.97 738.244 2029 769.184V1737.11C2028.95 1768.07 2020.81 1798.48 2005.37 1825.31C1989.93 1852.14 1967.74 1874.47 1941 1890.07L1102.66 2374.12C1075.88 2389.57 1045.5 2397.68 1014.58 2397.65Z" fill="#FBE4D8"/>
<path d="M855.575 1413.3C855.575 1406.8 858.158 1400.56 862.755 1395.96C867.352 1391.37 873.587 1388.78 880.088 1388.78H988.516C994.309 1388.8 999.909 1390.87 1004.32 1394.63C1008.73 1398.38 1011.67 1403.58 1012.62 1409.29C1028.96 1519.68 1077.99 1575.33 1299.66 1575.33C1476.24 1575.33 1551.49 1535.37 1551.49 1441.65C1551.49 1387.64 1530.17 1347.52 1255.7 1320.64C1026.27 1297.92 884.419 1247.1 884.419 1063.75C884.419 894.607 1027 793.697 1266 793.697C1534.58 793.697 1667.52 886.927 1684.35 1086.95C1684.61 1090.29 1684.18 1093.65 1683.09 1096.81C1682 1099.98 1680.27 1102.89 1678.01 1105.36C1675.75 1107.84 1673.01 1109.82 1669.96 1111.19C1666.9 1112.57 1663.6 1113.3 1660.25 1113.34H1551.08C1545.61 1113.27 1540.31 1111.36 1536.05 1107.92C1531.78 1104.49 1528.79 1099.72 1527.55 1094.39C1501.49 978.278 1437.67 941.182 1266.08 941.182C1073.25 941.182 1050.86 1008.35 1050.86 1058.68C1050.86 1119.63 1077.33 1137.45 1337.66 1171.85C1595.29 1205.92 1717.69 1254.13 1717.69 1435.2C1717.69 1617.9 1565.38 1722.48 1299.75 1722.48C932.464 1722.97 855.575 1554.57 855.575 1413.3Z" fill="#FBE4D8"/>
</svg>
